<svg xmlns="http://www.w3.org/2000/svg" width="28.957" height="28.957" viewBox="0 0 28.957 28.957">
  <g id="Group_19233" data-name="Group 19233" transform="translate(0 0)">
    <path id="Path_1202" data-name="Path 1202" d="M648.735,92.682H629.456a4.845,4.845,0,0,1-4.839-4.839V68.564a4.845,4.845,0,0,1,4.839-4.839h19.279a4.845,4.845,0,0,1,4.839,4.839V87.843a4.845,4.845,0,0,1-4.839,4.839M629.456,65.309a3.259,3.259,0,0,0-3.255,3.255V87.843a3.259,3.259,0,0,0,3.255,3.255h19.279a3.259,3.259,0,0,0,3.255-3.255V68.564a3.259,3.259,0,0,0-3.255-3.255Z" transform="translate(-624.617 -63.725)" fill="#ff687b"/>
    <path id="Path_1203" data-name="Path 1203" d="M691.316,137.854a7.43,7.43,0,1,1,5.254-2.176,7.381,7.381,0,0,1-5.254,2.176m0-13.276a5.846,5.846,0,1,0,5.846,5.846,5.852,5.852,0,0,0-5.846-5.846" transform="translate(-676.837 -115.945)" fill="#ff687b"/>
    <path id="Path_1204" data-name="Path 1204" d="M814.741,87a1.426,1.426,0,1,1-1.426-1.426A1.426,1.426,0,0,1,814.741,87" transform="translate(-789.618 -82.972)" fill="#ff687b"/>
  </g>
</svg>
