<svg xmlns="http://www.w3.org/2000/svg" width="24.692" height="24.692" viewBox="0 0 24.692 24.692">
  <g id="Group_19234" data-name="Group 19234" transform="translate(0 0)">
    <rect id="Rectangle_54" data-name="Rectangle 54" width="5.163" height="16.461" transform="translate(0.412 8.118)" fill="#ff687b"/>
    <path id="Path_1210" data-name="Path 1210" d="M1848.162,146.462q-.292-.032-.6-.045a6.023,6.023,0,0,0-5.088,2.329,3.662,3.662,0,0,0-.225.323v-2.2h-4.938v16.461h5.163v-7.734a6.718,6.718,0,0,1,.472-3.325,2.519,2.519,0,0,1,2.3-1.287,2.737,2.737,0,0,1,2.918,2.825v9.6h5.163V152.665c0-3.674-1.868-5.847-5.163-6.2" transform="translate(-1828.634 -138.71)" fill="#ff687b"/>
    <path id="Path_1211" data-name="Path 1211" d="M1770.321,84.653a2.993,2.993,0,1,1-2.993-2.993,2.993,2.993,0,0,1,2.993,2.993" transform="translate(-1764.335 -81.66)" fill="#ff687b"/>
  </g>
</svg>
