<svg xmlns="http://www.w3.org/2000/svg" xmlns:xlink="http://www.w3.org/1999/xlink" width="63" height="84" viewBox="0 0 63 84">
  <defs>
    <clipPath id="clip-path">
      <rect id="Rectangle_5894" data-name="Rectangle 5894" width="63" height="84" transform="translate(0 0.107)" fill="none" stroke="#000" stroke-width="2"/>
    </clipPath>
  </defs>
  <g id="Group_19333" data-name="Group 19333" transform="translate(-1438 -5265)">
    <g id="Group_19293" data-name="Group 19293" transform="translate(1438 5264.893)">
      <g id="Group_19292" data-name="Group 19292" clip-path="url(#clip-path)">
        <circle id="Ellipse_100" data-name="Ellipse 100" cx="7" cy="7" r="7" transform="translate(25 63.107)" fill="none" stroke="#000" stroke-miterlimit="10" stroke-width="2"/>
        <path id="Path_32772" data-name="Path 32772" d="M35.352,42H52.063c1.934,0,3.5,1.961,3.5,4.381v2.19a2.009,2.009,0,0,1-1.752,2.19H4.751A2.009,2.009,0,0,1,3,48.571v-2.19C3,43.961,4.569,42,6.5,42H23.216" transform="translate(2.256 31.593)" fill="none" stroke="#000" stroke-miterlimit="10" stroke-width="2"/>
        <line id="Line_222" data-name="Line 222" y1="23" x2="22" transform="translate(39 45.107)" fill="none" stroke="#000" stroke-linecap="round" stroke-miterlimit="10" stroke-width="2"/>
        <line id="Line_223" data-name="Line 223" y1="11" x2="10" transform="translate(39 38.107)" fill="none" stroke="#000" stroke-linecap="round" stroke-miterlimit="10" stroke-width="2"/>
        <path id="Path_32773" data-name="Path 32773" d="M11.513,5.524,5.524,11.513,2.036,8.025a3.536,3.536,0,0,1,0-5l.988-.988a3.536,3.536,0,0,1,5,0Z" transform="translate(0.752 0.752)" fill="none" stroke="#000" stroke-miterlimit="10" stroke-width="2"/>
        <ellipse id="Ellipse_101" data-name="Ellipse 101" cx="8.5" cy="9" rx="8.5" ry="9" transform="translate(9 19.107)" fill="none" stroke="#000" stroke-miterlimit="10" stroke-width="2"/>
        <path id="Path_32774" data-name="Path 32774" d="M18.847,61.112A29.767,29.767,0,0,1,7.258,16.464m7.44,7.782A19.267,19.267,0,0,0,25.563,52.455" transform="translate(1.128 12.385)" fill="none" stroke="#000" stroke-miterlimit="10" stroke-width="2"/>
        <path id="Path_32775" data-name="Path 32775" d="M8.464,20.315,4.227,16.078a4.19,4.19,0,0,1,0-5.926l5.926-5.924a4.188,4.188,0,0,1,5.924,0L36.817,24.967a4.188,4.188,0,0,1,0,5.924l-5.924,5.926a4.19,4.19,0,0,1-5.926,0l-4.211-4.211" transform="translate(2.256 2.257)" fill="none" stroke="#000" stroke-linecap="round" stroke-miterlimit="10" stroke-width="2"/>
      </g>
    </g>
    <circle id="Ellipse_104" data-name="Ellipse 104" cx="6" cy="6" r="6" transform="translate(1449.5 5287.103)" fill="#10a5df"/>
    <circle id="Ellipse_106" data-name="Ellipse 106" cx="4.5" cy="4.5" r="4.5" transform="translate(1465.4 5330.5)" fill="#10a5df"/>
  </g>
</svg>
