<svg xmlns="http://www.w3.org/2000/svg" xmlns:xlink="http://www.w3.org/1999/xlink" width="73.059" height="77.896" viewBox="0 0 73.059 77.896">
  <defs>
    <clipPath id="clip-path">
      <rect id="Rectangle_5886" data-name="Rectangle 5886" width="73.059" height="77.896" fill="none"/>
    </clipPath>
  </defs>
  <g id="Group_19331" data-name="Group 19331" transform="translate(-469.534 -5050.104)">
    <g id="Group_19286" data-name="Group 19286" transform="translate(469.534 5050.104)">
      <g id="Group_19285" data-name="Group 19285" clip-path="url(#clip-path)">
        <path id="Path_32749" data-name="Path 32749" d="M36.045,77.9l-.637-.191C19.853,73.053,8.8,60.328,3.451,40.908A98.824,98.824,0,0,1,.038,13.017l.087-1.888,24.26.261L34.154,0,45.443,10.953l27.051-.1.22,1.716A76.527,76.527,0,0,1,70.6,38.979c-4.861,18.707-16.6,32.082-33.936,38.681ZM3.924,15.088a98.11,98.11,0,0,0,3.33,24.873c4.98,17.985,14.615,29.351,28.642,33.8,15.94-6.27,26.328-18.257,30.881-35.641a75.593,75.593,0,0,0,2.2-23.335l-25.119.1L34.416,5.714,26.17,15.327Z" transform="translate(0 -0.001)" stroke="#fff" stroke-width="2"/>
        <path id="Path_32750" data-name="Path 32750" d="M96.486,71.516A1.717,1.717,0,0,0,98.2,69.8V66.966c0-4.625-2.514-8.4-5.545-8.4H83.6c-3.032,0-5.842,3.778-5.842,8.4V69.8a1.717,1.717,0,0,0,1.717,1.717h.156A1.716,1.716,0,0,0,81.348,69.8V67.818c0-3.454,1.5-6.134,3.609-6.134h6.3c2.11,0,3.508,2.68,3.508,6.134V69.8a1.717,1.717,0,0,0,1.717,1.717" transform="translate(-51.647 -38.897)"/>
        <path id="Path_32751" data-name="Path 32751" d="M90.7,101.317H72.242c-2.793,0-5.171,1.72-5.171,3.868v15.072c0,2.148,2.378,3.844,5.171,3.844H90.7c2.793,0,4.777-1.7,4.777-3.844V105.185c0-2.148-1.984-3.868-4.777-3.868M82.89,113.13l.807,5.935H79.175l.682-6.047a2.192,2.192,0,0,1-1.1-2.04,2.731,2.731,0,0,1,5.44,0,2.732,2.732,0,0,1-1.3,2.153" transform="translate(-44.548 -67.293)"/>
      </g>
    </g>
    <circle id="Ellipse_108" data-name="Ellipse 108" cx="3.087" cy="3.087" r="3.087" transform="translate(503.3 5091.201)" fill="#10a5df"/>
  </g>
</svg>
